<?xml version="1.0" encoding="UTF-8"?>
<!DOCTYPE svg PUBLIC "-//W3C//DTD SVG 1.1//EN" "http://www.w3.org/Graphics/SVG/1.1/DTD/svg11.dtd">
<!-- Creator: CorelDRAW -->
<svg xmlns="http://www.w3.org/2000/svg" xml:space="preserve" width="185.465mm" height="174.111mm" version="1.1" style="shape-rendering:geometricPrecision; text-rendering:geometricPrecision; image-rendering:optimizeQuality; fill-rule:evenodd; clip-rule:evenodd"
viewBox="0 0 3061.42 2874"
 xmlns:xlink="http://www.w3.org/1999/xlink"
 xmlns:xodm="http://www.corel.com/coreldraw/odm/2003">
 <defs>
  <style type="text/css">
   <![CDATA[
    .fil0 {fill:#DEE4E8;fill-rule:nonzero}
   ]]>
  </style>
 </defs>
 <g id="Layer_x0020_1">
  <metadata id="CorelCorpID_0Corel-Layer"/>
  <g id="_1367431224544">
   <path class="fil0" d="M1637.41 135.85l49.69 55.4 -55.4 49.69 -49.69 -55.4 55.4 -49.69zm-71.25 341.62l49.69 55.4 55.4 -49.69 -49.69 -55.4 -55.4 49.69zm7.93 -145.96l49.69 55.4 55.4 -49.69 -49.69 -55.4 -55.4 49.69zm124.06 585.07c15.88,17.69 31.76,35.38 47.64,53.08l45.46 -40.78 -47.62 -53.09 -45.48 40.79zm0.31 -139.13l47.62 53.09 53.09 -47.62 -47.62 -53.09 -53.09 47.62zm-140.22 -154.01l49.69 55.4 55.4 -49.69 -49.69 -55.4 -55.4 49.69zm-140.23 -154.01l51.76 57.71 57.71 -51.76 -51.77 -57.71 -57.71 51.76zm141.05 292.13c16.57,18.47 33.13,36.93 49.7,55.39l46.65 -41.84 -49.69 -55.4 -46.65 41.85zm278.21 310.02c15.19,16.92 30.38,33.85 45.57,50.77l44.26 -39.7 -45.55 -50.78 -44.27 39.71zm-107.1 -877.98l47.62 53.09 53.09 -47.62 -47.62 -53.09 -53.09 47.62zm-304.23 129.87l51.76 57.71 57.71 -51.76 -51.77 -57.71 -57.71 51.76zm412.75 607.99l45.55 50.78 50.78 -45.55 -45.55 -50.78 -50.78 45.55zm7.93 -145.96l45.55 50.78 50.78 -45.55 -45.55 -50.78 -50.78 45.55zm-132.3 -299.97l47.62 53.09 53.09 -47.62 -47.62 -53.09 -53.09 47.62zm23.78 -437.89l47.62 53.09 53.09 -47.62 -47.62 -53.09 -53.09 47.62zm-31.71 583.85l47.62 53.09 53.09 -47.62 -47.62 -53.09 -53.09 47.62zm15.85 -291.93l47.62 53.09 53.09 -47.62 -47.62 -53.09 -53.09 47.62zm-274.97 2327.36l49.69 55.4 55.4 -49.69 -49.69 -55.4 -55.4 49.69zm632.24 -697.63l41.41 46.17 46.17 -41.41 -41.41 -46.17 -46.17 41.41zm15.85 -291.93l41.41 46.17 46.17 -41.41 -41.41 -46.17 -46.17 41.41zm-675.4 -1070.83c17.26,19.24 34.51,38.47 51.77,57.7l47.82 -42.89 -51.77 -57.71 -47.83 42.9zm651.62 1508.71l41.41 46.17 46.17 -41.41 -41.41 -46.17 -46.17 41.41zm44.02 -733.75c13.82,15.38 27.63,30.76 41.45,46.14l41.75 -37.45 -41.41 -46.17 -41.78 37.48zm-12.31 149.9l41.41 46.17 46.17 -41.41 -41.41 -46.17 -46.17 41.41zm23.78 -437.89l41.41 46.17 46.17 -41.41 -41.41 -46.17 -46.17 41.41zm-7.93 145.96l41.41 46.17 46.17 -41.41 -41.41 -46.17 -46.17 41.41zm-63.41 1167.7l41.41 46.17 46.17 -41.41 -41.41 -46.17 -46.17 41.41zm31.71 -583.85l41.41 46.17 46.17 -41.41 -41.41 -46.17 -46.17 41.41zm-23.78 437.89l41.41 46.17 46.17 -41.41 -41.41 -46.17 -46.17 41.41zm-608.46 259.74l49.69 55.4 55.4 -49.69 -49.69 -55.4 -55.4 49.69zm-140.23 -154.01l51.76 57.71 57.71 -51.76 -51.77 -57.71 -57.71 51.77zm-34.09 -1915.44c17.95,20 35.89,40.01 53.84,60.01l48.99 -43.95 -53.83 -60.02 -49 43.95zm26.17 2061.4l51.76 57.71 57.71 -51.76 -51.77 -57.71 -57.71 51.76zm164 -283.88l49.69 55.4 55.4 -49.69 -49.69 -55.4 -55.4 49.69zm-7.93 145.96l49.69 55.4 55.4 -49.69 -49.69 -55.4 -55.4 49.69zm391.42 -1735.46l45.55 50.78 50.78 -45.55 -45.55 -50.78 -50.78 45.55zm-375.04 1444.12l49.17 54.81 55.4 -49.69 -49.16 -54.81c-18.47,16.56 -36.94,33.12 -55.4,49.69zm279.92 307.43l45.55 50.78 50.78 -45.55 -45.55 -50.78 -50.78 45.55zm103.04 -1897.51l45.55 50.78 50.78 -45.55 -45.55 -50.78 -50.78 45.55zm-118.9 2189.44l45.55 50.78 50.78 -45.55 -45.55 -50.78 -50.78 45.55zm31.71 -583.85l45.55 50.78 50.78 -45.55 -45.55 -50.78 -50.78 45.55zm-23.78 437.89l45.55 50.78 50.78 -45.55 -45.55 -50.78 -50.78 45.55zm-156.08 137.92l47.62 53.09 53.09 -47.62 -47.62 -53.09 -53.09 47.62zm195.71 -867.73l45.55 50.78 50.78 -45.55 -45.55 -50.78 -50.78 45.55zm-7.93 145.96l45.55 50.78 50.78 -45.55 -45.55 -50.78 -50.78 45.55zm124.37 445.93l43.48 48.47 48.48 -43.48 -43.48 -48.48 -48.47 43.48zm39.63 -729.81l43.48 48.48 48.48 -43.48 -43.48 -48.48 -48.48 43.48zm-359.72 1151.61l47.62 53.09 53.09 -47.62 -47.62 -53.09 -53.09 47.62zm328.01 -567.76l43.48 48.48 48.48 -43.48 -43.48 -48.48 -48.47 43.48zm-15.85 291.93l43.48 48.48 48.48 -43.48 -43.48 -48.47 -48.47 43.48zm23.78 -437.89l43.48 48.48 48.48 -43.48 -43.48 -48.48 -48.47 43.48zm15.85 -291.92l43.48 48.47 48.48 -43.48 -43.48 -48.48 -48.48 43.48zm-7.92 145.96l43.48 48.47 48.48 -43.48 -43.48 -48.48 -48.47 43.48zm-164.01 283.88l45.55 50.78 50.78 -45.55 -45.55 -50.78 -50.78 45.55zm211.56 -1159.65l43.48 48.48 48.47 -43.48 -43.48 -48.48 -48.48 43.48zm7.93 -145.96l43.48 48.48 48.48 -43.48 -43.48 -48.47 -48.48 43.48zm7.93 -145.96l43.48 48.48 48.48 -43.48 -43.48 -48.48 -48.48 43.48zm-391.42 1735.46l47.62 53.09 53.09 -47.62 -47.62 -53.09 -53.09 47.62zm373.07 -1302.44c14.5,16.15 29.01,32.29 43.52,48.44l43.01 -38.58 -43.48 -48.48 -43.05 38.62zm-98.09 -1024.92l45.55 50.78 50.78 -45.55 -45.55 -50.78 -50.78 45.55zm140.23 154.01l43.48 48.48 48.48 -43.48 -43.48 -48.47 -48.47 43.48zm-148.15 -8.05l45.55 50.78 50.78 -45.55 -45.55 -50.78 -50.78 45.55zm132.3 299.97l43.48 48.48 48.48 -43.48 -43.48 -48.47 -48.48 43.48zm7.93 -145.96l43.48 48.48 48.48 -43.48 -43.48 -48.47 -48.47 43.48zm-383.49 1589.5l47.62 53.09 53.09 -47.62 -47.62 -53.09 -53.09 47.62zm7.92 -145.96l47.62 53.09 53.09 -47.62 -47.62 -53.09 -53.09 47.62zm-23.78 437.89l47.62 53.09 53.09 -47.62 -47.62 -53.09 -53.09 47.62zm7.93 -145.96l47.62 53.09 53.09 -47.62 -47.62 -53.09 -53.09 47.62zm-449.81 124.7l51.26 57.15 60.02 -53.83 -51.26 -57.14c-20.01,17.94 -40.01,35.89 -60.02,53.83zm965.6 -1414.22l41.41 46.17 46.17 -41.41 -41.41 -46.17 -46.17 41.41zm-810.55 1275.16l50.21 55.98 57.71 -51.76 -50.21 -55.98c-19.24,17.25 -38.47,34.51 -57.71,51.76zm1239.15 -959.1l35.2 39.24 39.24 -35.2 -35.2 -39.24 -39.24 35.2zm-140.22 -154.01l37.27 41.55 41.55 -37.27 -37.27 -41.55 -41.55 37.27zm15.85 -291.93l37.27 41.55 41.55 -37.27 -37.27 -41.55 -41.55 37.27zm-31.71 583.85l37.27 41.55 41.55 -37.27 -37.27 -41.55 -41.55 37.27zm7.93 -145.96l37.27 41.55 41.55 -37.27 -37.27 -41.55 -41.55 37.27zm-187.78 721.77l39.34 43.86 43.86 -39.34 -39.34 -43.86 -43.86 39.34zm-15.85 291.92l39.34 43.86 43.86 -39.34 -39.34 -43.86 -43.86 39.34zm7.93 -145.96l39.34 43.86 43.86 -39.34 -39.34 -43.86 -43.86 39.34zm211.56 -1159.65l37.27 41.55 41.55 -37.27 -37.27 -41.55 -41.55 37.27zm-31.71 583.85l37.27 41.55 41.55 -37.27 -37.27 -41.55 -41.55 37.27zm-23.78 437.89l37.27 41.55 41.55 -37.27 -37.27 -41.55 -41.55 37.27zm203.64 -1013.69l35.2 39.24 39.24 -35.2 -35.2 -39.24 -39.24 35.2zm-7.93 145.96l35.2 39.24 39.24 -35.2 -35.2 -39.24 -39.24 35.2zm-15.85 291.93l35.2 39.24 39.24 -35.2 -35.2 -39.24 -39.24 35.2zm-187.78 721.77l37.27 41.55 41.55 -37.27 -37.27 -41.55 -41.55 37.27zm23.78 -437.89l37.27 41.55 41.55 -37.27 -37.27 -41.55 -41.55 37.27zm-7.93 145.96l37.27 41.55 41.55 -37.27 -37.27 -41.55 -41.55 37.27zm-148.15 -8.05l39.34 43.86 43.86 -39.34 -39.34 -43.86 -43.86 39.34zm23.78 -437.89l39.34 43.86 43.86 -39.34 -39.34 -43.86 -43.86 39.34zm7.93 -145.96l39.34 43.86 43.86 -39.34 -39.34 -43.86 -43.86 39.34zm-15.85 291.93l39.34 43.86 43.86 -39.34 -39.34 -43.86 -43.86 39.34zm-108.52 -737.86l41.41 46.17 46.17 -41.41 -41.41 -46.17 -46.17 41.41zm100.59 883.82l39.34 43.86 43.86 -39.34 -39.34 -43.86 -43.86 39.34zm31.71 -583.85l39.34 43.86 43.86 -39.34 -39.34 -43.86 -43.86 39.34zm15.85 -291.93l39.34 43.86 43.86 -39.34 -39.34 -43.86 -43.86 39.34zm-7.92 145.96l39.34 43.86 43.86 -39.34 -39.34 -43.86 -43.86 39.34zm15.85 -291.93l39.34 43.86 43.86 -39.34 -39.34 -43.86 -43.86 39.34zm-140.22 -154.01l41.41 46.17 46.17 -41.41 -41.41 -46.17 -46.17 41.41zm902.66 927.38l-28.99 -32.32 -32.32 28.99 28.99 32.32 32.32 -28.99zm-910.58 -781.41l41.41 46.17 46.17 -41.41 -41.41 -46.17 -46.17 41.41zm529.2 1199.88l33.13 36.93 36.94 -33.13 -33.13 -36.93 -36.93 33.13zm31.7 -583.85l33.13 36.93 36.93 -33.13 -33.13 -36.93 -36.93 33.13zm280.45 308.02l28.99 32.32 32.32 -28.99 -28.99 -32.32 -32.32 28.99zm-288.38 -162.05l33.13 36.93 36.93 -33.13 -33.13 -36.93 -36.93 33.13zm-171.93 429.84l35.2 39.24 39.24 -35.2 -35.2 -39.24 -39.24 35.2zm7.93 -145.96l35.2 39.24 39.24 -35.2 -35.2 -39.24 -39.24 35.2zm-15.85 291.93l35.2 39.24 39.24 -35.2 -35.2 -39.24 -39.24 35.2zm171.93 -429.84l33.13 36.93 36.93 -33.13 -33.13 -36.93 -36.93 33.13zm23.78 -437.89l33.13 36.93 36.93 -33.13 -33.13 -36.93 -36.93 33.13zm124.37 445.93l31.06 34.62 34.62 -31.06 -31.06 -34.62 -34.62 31.06zm-7.93 145.96l31.06 34.63 34.62 -31.06 -31.06 -34.62 -34.62 31.06zm15.85 -291.93l31.06 34.63 34.63 -31.06 -31.06 -34.62 -34.62 31.06zm-304.23 129.87l35.2 39.24 39.24 -35.2 -35.2 -39.24 -39.24 35.2zm312.16 -275.84l31.06 34.63 34.63 -31.06 -31.06 -34.62 -34.62 31.06zm-171.93 429.84l33.13 36.93 36.94 -33.13 -33.13 -36.93 -36.93 33.13z"/>
   <path class="fil0" d="M359.57 366.95l38.18 42.56 -42.56 38.18 -38.18 -42.56 42.56 -38.18zm-54.74 262.46l38.18 42.56 42.56 -38.18 -38.18 -42.56 -42.56 38.18zm6.09 -112.14l38.18 42.56 42.56 -38.18 -38.18 -42.56 -42.56 38.18zm95.31 449.49c12.2,13.59 24.4,27.18 36.6,40.78l34.93 -31.33 -36.59 -40.79 -34.94 31.34zm0.24 -106.89l36.59 40.79 40.79 -36.59 -36.59 -40.79 -40.79 36.59zm-107.73 -118.32l38.18 42.56 42.56 -38.18 -38.18 -42.56 -42.56 38.18zm-107.73 -118.32l39.77 44.34 44.34 -39.77 -39.77 -44.34 -44.34 39.77zm108.36 224.43c12.73,14.19 25.46,28.37 38.19,42.56l35.84 -32.15 -38.18 -42.56 -35.84 32.15zm213.75 238.18c11.67,13 23.34,26 35.01,39l34 -30.5 -35 -39.02 -34.01 30.51zm-82.28 -674.53l36.59 40.79 40.79 -36.59 -36.59 -40.79 -40.79 36.59zm-233.73 99.78l39.77 44.34 44.34 -39.77 -39.77 -44.34 -44.34 39.77zm317.1 467.1l35 39.02 39.02 -35 -35 -39.02 -39.02 35zm6.09 -112.14l35 39.02 39.02 -35 -35 -39.02 -39.02 35zm-101.64 -230.46l36.59 40.79 40.79 -36.59 -36.59 -40.79 -40.79 36.59zm18.27 -336.42l36.59 40.79 40.79 -36.59 -36.59 -40.79 -40.79 36.59zm-24.36 448.56l36.59 40.79 40.79 -36.59 -36.59 -40.79 -40.79 36.59zm12.18 -224.28l36.59 40.79 40.79 -36.59 -36.59 -40.79 -40.79 36.59zm-211.26 1788.05l38.18 42.56 42.56 -38.18 -38.18 -42.56 -42.56 38.18zm485.73 -535.97l31.82 35.47 35.47 -31.81 -31.82 -35.47 -35.47 31.82zm12.18 -224.28l31.82 35.47 35.47 -31.82 -31.82 -35.47 -35.47 31.82zm-518.89 -822.69c13.26,14.78 26.52,29.56 39.77,44.33l36.74 -32.96 -39.77 -44.34 -36.74 32.96zm500.62 1159.11l31.82 35.47 35.47 -31.82 -31.82 -35.47 -35.47 31.82zm33.82 -563.72c10.62,11.81 21.23,23.63 31.84,35.44l32.07 -28.77 -31.82 -35.47 -32.1 28.79zm-9.46 115.16l31.81 35.47 35.47 -31.82 -31.82 -35.47 -35.47 31.82zm18.27 -336.42l31.82 35.47 35.47 -31.82 -31.82 -35.47 -35.47 31.82zm-6.09 112.14l31.82 35.47 35.47 -31.82 -31.82 -35.47 -35.47 31.82zm-48.72 897.11l31.82 35.47 35.47 -31.81 -31.82 -35.47 -35.47 31.82zm24.36 -448.56l31.82 35.47 35.47 -31.82 -31.82 -35.47 -35.47 31.82zm-18.27 336.42l31.81 35.47 35.47 -31.82 -31.82 -35.47 -35.47 31.82zm-467.47 199.55l38.18 42.56 42.56 -38.18 -38.18 -42.56 -42.56 38.18zm-107.73 -118.32l39.77 44.34 44.34 -39.77 -39.77 -44.34 -44.34 39.77zm-26.19 -1471.58c13.79,15.37 27.58,30.74 41.36,46.1l37.64 -33.76 -41.36 -46.11 -37.65 33.77zm20.1 1583.72l39.77 44.34 44.34 -39.77 -39.77 -44.34 -44.34 39.77zm126 -218.1l38.18 42.56 42.56 -38.18 -38.18 -42.56 -42.56 38.18zm-6.09 112.14l38.18 42.56 42.56 -38.18 -38.18 -42.56 -42.56 38.18zm300.72 -1333.31l35 39.02 39.02 -35 -35 -39.02 -39.02 35zm-288.14 1109.48l37.77 42.11 42.56 -38.18 -37.77 -42.11c-14.19,12.73 -28.38,25.45 -42.57,38.17zm215.06 236.19l35 39.02 39.02 -35 -35 -39.02 -39.02 35zm79.17 -1457.81l35 39.02 39.02 -35 -35 -39.02 -39.02 35zm-91.35 1682.09l35 39.02 39.02 -35 -35 -39.02 -39.02 35zm24.36 -448.56l35 39.02 39.02 -35 -35 -39.02 -39.02 35zm-18.27 336.42l35 39.02 39.02 -35 -35 -39.02 -39.02 35zm-119.91 105.96l36.59 40.79 40.79 -36.59 -36.59 -40.79 -40.79 36.59zm150.36 -666.66l35 39.02 39.02 -35 -35 -39.02 -39.02 35zm-6.09 112.14l35 39.02 39.02 -35 -35 -39.02 -39.02 35zm95.55 342.6l33.4 37.24 37.24 -33.4 -33.4 -37.24 -37.24 33.41zm30.45 -560.7l33.4 37.24 37.24 -33.4 -33.4 -37.24 -37.24 33.4zm-276.36 884.75l36.59 40.79 40.79 -36.59 -36.59 -40.79 -40.79 36.59zm252 -436.2l33.41 37.24 37.24 -33.41 -33.4 -37.24 -37.24 33.4zm-12.18 224.28l33.4 37.24 37.24 -33.41 -33.41 -37.24 -37.24 33.4zm18.27 -336.42l33.41 37.24 37.24 -33.4 -33.41 -37.24 -37.24 33.41zm12.18 -224.28l33.4 37.24 37.24 -33.41 -33.41 -37.24 -37.24 33.41zm-6.09 112.14l33.4 37.24 37.24 -33.4 -33.41 -37.24 -37.24 33.41zm-126 218.1l35 39.02 39.02 -35 -35 -39.02 -39.02 35zm162.54 -890.93l33.4 37.24 37.24 -33.41 -33.41 -37.24 -37.24 33.41zm6.09 -112.14l33.4 37.24 37.24 -33.4 -33.4 -37.24 -37.24 33.4zm6.09 -112.14l33.41 37.24 37.24 -33.41 -33.4 -37.24 -37.24 33.41zm-300.72 1333.31l36.59 40.79 40.79 -36.59 -36.59 -40.79 -40.79 36.59zm286.62 -1000.63c11.14,12.41 22.29,24.81 33.43,37.22l33.05 -29.64 -33.41 -37.24 -33.07 29.67zm-75.36 -787.42l35 39.02 39.02 -35 -35 -39.02 -39.02 35zm107.73 118.32l33.4 37.24 37.24 -33.4 -33.41 -37.24 -37.24 33.41zm-113.82 -6.18l35 39.02 39.02 -35 -35 -39.02 -39.02 35zm101.64 230.46l33.41 37.24 37.24 -33.4 -33.41 -37.24 -37.24 33.41zm6.09 -112.14l33.4 37.24 37.24 -33.41 -33.41 -37.24 -37.24 33.4zm-294.63 1221.17l36.59 40.79 40.79 -36.59 -36.59 -40.79 -40.79 36.59zm6.09 -112.14l36.59 40.79 40.79 -36.59 -36.59 -40.79 -40.79 36.59zm-18.27 336.42l36.59 40.79 40.79 -36.59 -36.59 -40.79 -40.79 36.59zm6.09 -112.14l36.59 40.79 40.79 -36.59 -36.59 -40.79 -40.79 36.59zm-345.58 95.8l39.38 43.9 46.11 -41.36 -39.38 -43.9c-15.37,13.78 -30.74,27.57 -46.11,41.36zm741.85 -1086.51l31.82 35.47 35.47 -31.82 -31.82 -35.47 -35.47 31.82zm-622.72 979.68l38.58 43.01 44.34 -39.77 -38.58 -43.01c-14.78,13.25 -29.56,26.51 -44.34,39.76zm952.01 -736.86l27.04 30.15 30.15 -27.04 -27.04 -30.15 -30.15 27.04zm-107.73 -118.32l28.63 31.92 31.92 -28.63 -28.63 -31.92 -31.92 28.63zm12.18 -224.28l28.63 31.92 31.92 -28.63 -28.63 -31.92 -31.92 28.63zm-24.36 448.56l28.63 31.92 31.92 -28.63 -28.63 -31.92 -31.92 28.63zm6.09 -112.14l28.63 31.92 31.92 -28.63 -28.63 -31.92 -31.92 28.63zm-144.27 554.52l30.22 33.7 33.7 -30.23 -30.23 -33.7 -33.7 30.23zm-12.18 224.28l30.22 33.7 33.7 -30.22 -30.22 -33.7 -33.7 30.22zm6.09 -112.14l30.22 33.7 33.7 -30.22 -30.22 -33.7 -33.7 30.22zm162.54 -890.93l28.63 31.92 31.92 -28.63 -28.63 -31.92 -31.92 28.63zm-24.36 448.56l28.63 31.92 31.92 -28.63 -28.63 -31.92 -31.92 28.63zm-18.27 336.42l28.63 31.92 31.92 -28.63 -28.63 -31.92 -31.92 28.63zm156.45 -778.79l27.04 30.15 30.15 -27.04 -27.04 -30.15 -30.15 27.04zm-6.09 112.14l27.04 30.15 30.15 -27.04 -27.04 -30.15 -30.15 27.04zm-12.18 224.28l27.04 30.15 30.15 -27.04 -27.04 -30.15 -30.15 27.04zm-144.27 554.51l28.63 31.92 31.92 -28.63 -28.63 -31.92 -31.92 28.63zm18.27 -336.42l28.63 31.92 31.92 -28.63 -28.63 -31.92 -31.92 28.63zm-6.09 112.14l28.63 31.92 31.92 -28.63 -28.63 -31.92 -31.92 28.63zm-113.82 -6.18l30.22 33.7 33.7 -30.22 -30.23 -33.7 -33.69 30.22zm18.27 -336.42l30.22 33.7 33.7 -30.22 -30.22 -33.7 -33.7 30.22zm6.09 -112.14l30.22 33.7 33.7 -30.22 -30.23 -33.7 -33.7 30.22zm-12.18 224.28l30.22 33.7 33.7 -30.22 -30.22 -33.7 -33.7 30.22zm-83.37 -566.88l31.81 35.47 35.47 -31.82 -31.82 -35.47 -35.47 31.81zm77.28 679.02l30.22 33.7 33.7 -30.23 -30.22 -33.7 -33.7 30.22zm24.36 -448.56l30.22 33.7 33.7 -30.22 -30.23 -33.7 -33.69 30.22zm12.18 -224.28l30.22 33.7 33.7 -30.22 -30.22 -33.7 -33.7 30.22zm-6.09 112.14l30.22 33.7 33.7 -30.22 -30.22 -33.7 -33.7 30.22zm12.18 -224.28l30.22 33.7 33.7 -30.23 -30.22 -33.69 -33.7 30.22zm-107.73 -118.32l31.82 35.47 35.47 -31.82 -31.82 -35.47 -35.47 31.82zm693.49 712.48l-22.27 -24.83 -24.83 22.27 22.27 24.83 24.83 -22.27zm-699.58 -600.34l31.82 35.47 35.47 -31.81 -31.82 -35.47 -35.47 31.82zm406.57 921.84l25.45 28.37 28.38 -25.45 -25.45 -28.37 -28.38 25.45zm24.36 -448.56l25.45 28.38 28.38 -25.45 -25.45 -28.38 -28.37 25.45zm215.46 236.64l22.27 24.83 24.83 -22.27 -22.27 -24.83 -24.83 22.27zm-221.55 -124.5l25.45 28.38 28.38 -25.45 -25.45 -28.38 -28.38 25.45zm-132.09 330.24l27.04 30.15 30.15 -27.04 -27.04 -30.15 -30.15 27.04zm6.09 -112.14l27.04 30.15 30.15 -27.04 -27.04 -30.15 -30.15 27.04zm-12.18 224.28l27.04 30.15 30.15 -27.04 -27.04 -30.15 -30.15 27.04zm132.09 -330.24l25.45 28.38 28.38 -25.45 -25.45 -28.38 -28.38 25.45zm18.27 -336.42l25.45 28.37 28.38 -25.45 -25.45 -28.37 -28.38 25.45zm95.55 342.6l23.86 26.6 26.6 -23.86 -23.86 -26.6 -26.6 23.86zm-6.09 112.14l23.86 26.6 26.6 -23.86 -23.86 -26.6 -26.6 23.86zm12.18 -224.28l23.86 26.6 26.6 -23.86 -23.86 -26.6 -26.6 23.86zm-233.73 99.78l27.04 30.15 30.15 -27.04 -27.04 -30.15 -30.15 27.04zm239.82 -211.92l23.86 26.6 26.6 -23.86 -23.86 -26.6 -26.6 23.86zm-132.09 330.24l25.45 28.38 28.38 -25.45 -25.45 -28.38 -28.38 25.45z"/>
  </g>
 </g>
</svg>
