<?xml version="1.0" encoding="UTF-8"?>
<svg width="255px" height="58px" viewBox="0 0 255 58" version="1.1" xmlns="http://www.w3.org/2000/svg" xmlns:xlink="http://www.w3.org/1999/xlink">
    <!-- Generator: Sketch 63.1 (92452) - https://sketch.com -->
    <title>Group 3</title>
    <desc>Created with Sketch.</desc>
    <g id="Page-1" stroke="none" stroke-width="1" fill="none" fill-rule="evenodd">
        <g id="Logo" transform="translate(-200.000000, -1608.000000)" fill="#FFFFFF">
            <g id="Group-2-Copy-7" transform="translate(199.000000, 1543.000000)">
                <g id="Group-3" transform="translate(1.000000, 65.000000)">
                    <path d="M29,0 C45.0162577,0 58,12.9837423 58,29 C58,45.0162577 45.0162577,58 29,58 C12.9837423,58 0,45.0162577 0,29 C0,12.9837423 12.9837423,0 29,0 Z M235.279585,9.66666667 C247.162717,9.66666667 254.544392,18.6154007 254.544392,29.496077 C254.544392,40.3767534 247.025959,49.3508772 235.279585,49.3508772 C223.533211,49.3508772 216.100635,40.3767534 216.091359,29.496077 C216.082222,18.6154007 223.396453,9.66666667 235.279585,9.66666667 Z M193.343291,9.66648584 C205.191788,9.61983864 210.060224,18.6798106 210.614795,23.4357668 L201.471747,23.4357668 C200.926983,21.1589983 199.005448,18.1680017 193.08779,18.1733333 C186.605511,18.1733333 183.532867,23.0391499 183.532867,29.5214668 C183.532867,36.0037837 187.108676,40.8416667 193.292191,40.8416667 C199.475706,40.8416667 202.532778,36.9366884 202.532778,34.4295653 L192.397936,34.4295653 L192.397936,26.7444444 L210.870689,26.7444444 C211.15174,28.0901023 211.279629,30.1816008 211.279629,31.8319359 C211.302909,37.3742349 208.358422,49.3004186 193.241091,49.3004186 C182.241235,49.3004186 174.080556,42.5184628 174.080556,29.6484157 C174.080556,16.7783686 181.304912,9.66648584 193.343291,9.66648584 Z M103.932778,10.5045291 L103.932778,20.1066667 L94.2016667,20.1066667 L94.2016667,48.5130148 L84.3094444,48.5130148 L84.3094444,20.1066667 L74.5783333,20.1066667 L74.5783333,10.5045291 L103.932778,10.5045291 Z M145.039079,10.5045291 L154.640462,24.9077778 L162.961997,10.5045291 L173.183299,10.5045291 L159.65346,33.3807119 L159.65346,48.5130148 L149.646802,48.5130148 L149.646802,33.3807119 L134.817778,10.5045291 L145.039079,10.5045291 Z M122.744091,10.476521 L140.424444,33.3527038 L140.424444,48.498495 L130.645,48.498495 L130.645,35.1013132 L122.744091,25.0044444 L114.791667,35.1013132 L114.791667,48.498495 L105.012222,48.498495 L105.012222,33.3527038 L122.744091,10.476521 Z M28.2688577,8.72686968 C28.1769732,8.79394848 28.096001,8.87481721 28.0288047,8.96661578 L13.1851499,29.2449132 C12.9252801,29.599928 12.7851962,30.0284645 12.7851962,30.4684279 L12.7851962,43.5561391 C12.7851962,44.3188181 13.4034696,44.9370915 14.1661485,44.9370915 L20.9007143,44.9370915 C21.6633932,44.9370915 22.2816667,44.3188181 22.2816667,43.5561391 L22.2816667,31.9858031 C22.2816667,31.6959094 22.3728963,31.413367 22.5424281,31.1782131 L28.358452,23.1109299 C28.5814618,22.8015977 29.0130103,22.7316196 29.3223425,22.9546294 C29.3834206,22.9986631 29.4368851,23.0523906 29.4806184,23.1136842 L35.2359672,31.1799818 C35.4029979,31.4140804 35.4927778,31.6944848 35.4927778,31.9820633 L35.4927778,43.5561391 C35.4927778,44.3188181 36.1110512,44.9370915 36.8737302,44.9370915 L43.6334921,44.9370915 C44.396171,44.9370915 45.0144444,44.3188181 45.0144444,43.5561391 L45.0144444,30.4669617 C45.0144444,30.0279039 44.8749359,29.6002017 44.6160545,29.2455862 L29.8125452,8.96775672 C29.4527868,8.47496006 28.7616543,8.36711126 28.2688577,8.72686968 Z M235.279585,18.8177778 C229.830311,18.8177778 225.797222,22.8325654 225.797222,29.496077 C225.797222,36.1595886 229.849131,40.1972222 235.279585,40.1972222 C240.710039,40.1972222 244.711666,35.8425824 244.711666,29.496077 C244.711666,23.1495717 240.728859,18.8177778 235.279585,18.8177778 Z" id="Combined-Shape"></path>
                </g>
            </g>
        </g>
    </g>
</svg>